custom-analysis
version=1
nRows=4
nColumns=98
inDegrees=no

This file contains tibia displacement and acting force.

Units are S.I. units (seconds, meters, Newtons, ...)
Angles are in degrees.

endheader
time	APT	SIT	knee_angle	aACL_R_force	pACL_R_force	aPCL_R_force	pPCL_R_force	aMCL_R_force	mMCL_R_force	pMCL_R_force	aLCL_R_force	mLCL_R_force	pLCL_R_force	aPCL_L_force	pPCL_L_force	aMCL_L_force	aLCL_L_force	aACL_R_length	pACL_R_length	aPCL_R_length	pPCL_R_length	aMCL_R_length	mMCL_R_length	pMCL_R_length	aLCL_R_length	mLCL_R_length	pLCL_R_length	aPCL_L_length	pPCL_L_length	aMCL_L_length	aLCL_L_length	aACL_R_strain	pACL_R_strain	aPCL_R_strain	pPCL_R_strain	aMCL_R_strain	mMCL_R_strain	pMCL_R_strain	aLCL_R_strain	mLCL_R_strain	pLCL_R_strain	aPCL_L_strain	pPCL_L_strain	aMCL_L_strain	aLCL_L_strain	femur_lat_meniscii_r.femur_lat_r.force.X	femur_lat_meniscii_r.femur_lat_r.force.Y	femur_lat_meniscii_r.femur_lat_r.force.Z	femur_lat_meniscii_r.femur_lat_r.torque.X	femur_lat_meniscii_r.femur_lat_r.torque.Y	femur_lat_meniscii_r.femur_lat_r.torque.Z	femur_lat_meniscii_r.meniscus_lat_r.force.X	femur_lat_meniscii_r.meniscus_lat_r.force.Y	femur_lat_meniscii_r.meniscus_lat_r.force.Z	femur_lat_meniscii_r.meniscus_lat_r.torque.X	femur_lat_meniscii_r.meniscus_lat_r.torque.Y	femur_lat_meniscii_r.meniscus_lat_r.torque.Z	femur_med_meniscii_r.femur_med_r.force.X	femur_med_meniscii_r.femur_med_r.force.Y	femur_med_meniscii_r.femur_med_r.force.Z	femur_med_meniscii_r.femur_med_r.torque.X	femur_med_meniscii_r.femur_med_r.torque.Y	femur_med_meniscii_r.femur_med_r.torque.Z	femur_med_meniscii_r.meniscus_med_r.force.X	femur_med_meniscii_r.meniscus_med_r.force.Y	femur_med_meniscii_r.meniscus_med_r.force.Z	femur_med_meniscii_r.meniscus_med_r.torque.X	femur_med_meniscii_r.meniscus_med_r.torque.Y	femur_med_meniscii_r.meniscus_med_r.torque.Z	femur_med_tibia_r.tibia_upper_r.force.X	femur_med_tibia_r.tibia_upper_r.force.Y	femur_med_tibia_r.tibia_upper_r.force.Z	femur_med_tibia_r.tibia_upper_r.torque.X	femur_med_tibia_r.tibia_upper_r.torque.Y	femur_med_tibia_r.tibia_upper_r.torque.Z	femur_med_tibia_r.femur_med_r.force.X	femur_med_tibia_r.femur_med_r.force.Y	femur_med_tibia_r.femur_med_r.force.Z	femur_med_tibia_r.femur_med_r.torque.X	femur_med_tibia_r.femur_med_r.torque.Y	femur_med_tibia_r.femur_med_r.torque.Z	femur_lat_tibia_r.tibia_upper_r.force.X	femur_lat_tibia_r.tibia_upper_r.force.Y	femur_lat_tibia_r.tibia_upper_r.force.Z	femur_lat_tibia_r.tibia_upper_r.torque.X	femur_lat_tibia_r.tibia_upper_r.torque.Y	femur_lat_tibia_r.tibia_upper_r.torque.Z	femur_lat_tibia_r.femur_lat_r.force.X	femur_lat_tibia_r.femur_lat_r.force.Y	femur_lat_tibia_r.femur_lat_r.force.Z	femur_lat_tibia_r.femur_lat_r.torque.X	femur_lat_tibia_r.femur_lat_r.torque.Y	femur_lat_tibia_r.femur_lat_r.torque.Z	femur_lat_meniscii_force_r	femur_med_meniscii_force_r	femur_lat_tibia_force_r	femur_med_tibia_force_r
      0.20975494	      0.01353179	      0.02615228	     81.35007470	      0.71967002	      0.00000000	    963.70137955	    609.00055807	     24.19604492	     10.41502148	      0.00000000	      0.00000000	      0.00000000	      0.00000000	      0.00000000	      0.00000000	      0.00000001	      0.00000000	      0.03104267	      0.02443554	      0.03716196	      0.03394736	      0.06146856	      0.05991306	      0.05656190	      0.05016269	      0.04472380	      0.03972144	      0.01525851	      0.01651186	      0.06550154	      0.04489616	      0.00119867	     -0.02486788	      0.19509883	      0.13582678	      0.02401513	      0.00199954	     -0.03688361	     -0.10387289	     -0.20587872	     -0.24112743	      0.00000079	     -0.32847694	      0.00000060	     -0.00000086	    182.69498373	    110.39973507	      8.76358650	     -6.01558680	      4.23497574	     72.56018349	   -182.69498373	   -110.39973507	     -8.76358650	      2.84515452	     -4.94573387	      2.48780991	      0.04066265	      0.00122391	     -0.02550780	      0.01015810	     -0.00063251	      0.01616249	     -0.04066265	     -0.00122391	      0.02550780	     -0.00009485	      0.00121911	     -0.00009226	   -886.53754901	   -366.21164672	    314.66360401	     -8.25687625	     21.83548332	      2.32418422	    886.53754901	    366.21164672	   -314.66360401	    133.30595278	    -15.59591567	    357.25252791	   -289.05136080	   -129.27058894	    -77.81904367	      4.18484864	     -9.93480775	      0.96019482	    289.05136080	    129.27058894	     77.81904367	    -34.54134724	      7.07557149	    116.54577740	    213.64072419	      0.04801664	    326.06345687	   1009.49144607
      0.20977510	      0.01353103	      0.02615616	     81.36105778	     -0.07437238	      0.00000000	    965.97563787	    614.96118432	     26.28232309	     13.02132768	      0.00000000	      0.00000000	      0.00000000	      0.00000000	      0.00000000	      0.00000000	      0.00000001	      0.00000000	      0.03104270	      0.02443613	      0.03716283	      0.03394806	      0.06146912	      0.05991335	      0.05656234	      0.05016159	      0.04472255	      0.03972036	      0.01525851	      0.01651186	      0.06550154	      0.04489616	      0.00119983	     -0.02484440	      0.19512687	      0.13585019	      0.02402453	      0.00200436	     -0.03687610	     -0.10389250	     -0.20590092	     -0.24114798	      0.00000079	     -0.32847694	      0.00000060	     -0.00000086	    172.57256837	    110.67969395	     11.38024532	     -7.08156105	      4.02696777	     68.45721456	   -172.57256837	   -110.67969395	    -11.38024532	      2.87988162	     -4.78261315	      2.60708929	      0.03775582	      0.00141946	     -0.02375558	      0.00946309	     -0.00058791	      0.01500457	     -0.03775582	     -0.00141946	      0.02375558	     -0.00009031	      0.00113453	     -0.00007532	   -882.74038256	   -370.90142819	    311.57272840	     -8.26468885	     21.67436921	      2.56097825	    882.74038256	    370.90142819	   -311.57272840	    132.10836882	    -15.50870323	    355.64967876	   -287.57885441	   -131.18964660	    -78.94129456	      4.24598271	     -9.94559351	      1.06130317	    287.57885441	    131.18964660	     78.94129456	    -35.04036383	      7.05940869	    115.91740187	    205.33094261	      0.04463008	    325.79755810	   1006.91410633
      0.20979527	      0.01352995	      0.02615986	     81.37198820	     -2.06819053	      0.00000000	    971.68175619	    630.28187614	     31.74695089	     19.81885770	      0.00000000	      0.00000000	      0.00000000	      0.00000000	      0.00000000	      0.00000000	      0.00000001	      0.00000000	      0.03104263	      0.02443669	      0.03716400	      0.03394908	      0.06146983	      0.05991382	      0.05656300	      0.05016070	      0.04472152	      0.03971955	      0.01525851	      0.01651186	      0.06550154	      0.04489616	      0.00119767	     -0.02482200	      0.19516465	      0.13588431	      0.02403643	      0.00201230	     -0.03686493	     -0.10390836	     -0.20591914	     -0.24116352	      0.00000079	     -0.32847694	      0.00000060	     -0.00000086	    146.49305317	    110.00107115	     17.32752186	     -9.47424197	      3.48153620	     57.90505962	   -146.49305317	   -110.00107115	    -17.32752186	      2.92520342	     -4.33105917	      2.85591352	      0.03020455	      0.00171399	     -0.01916567	      0.00764041	     -0.00047172	      0.01199855	     -0.03020455	     -0.00171399	      0.01916567	     -0.00007703	      0.00091341	     -0.00003938	   -871.76117029	   -382.51185413	    303.31909250	     -8.27891592	     21.23619758	      3.15741696	    871.76117029	    382.51185413	   -303.31909250	    128.89875928	    -15.26582977	    351.04195568	   -283.51968512	   -135.80106918	    -81.70301917	      4.39456120	     -9.96135847	      1.30851379	    283.51968512	    135.80106918	     81.70301917	    -36.26646142	      7.01050929	    114.19565829	    184.01275308	      0.03581306	    324.80875232	    999.14229640
      0.20982859	      0.01352787	      0.02616578	     81.38999586	     -2.62400406	      0.00000000	    973.73426100	    635.15221131	     33.41528948	     21.88443182	      0.00000000	      0.00000000	      0.00000000	      0.00000000	      0.00000000	      0.00000000	      0.00000001	      0.00000000	      0.03104243	      0.02443760	      0.03716624	      0.03395108	      0.06147116	      0.05991479	      0.05656429	      0.05015944	      0.04472005	      0.03971846	      0.01525851	      0.01651186	      0.06550154	      0.04489616	      0.00119097	     -0.02478591	      0.19523649	      0.13595105	      0.02405852	      0.00202846	     -0.03684294	     -0.10393092	     -0.20594534	     -0.24118433	      0.00000079	     -0.32847694	      0.00000060	     -0.00000086	    138.52640207	    109.52512035	     18.82156803	    -10.06818503	      3.31096372	     54.68458589	   -138.52640207	   -109.52512035	    -18.82156803	      2.92861169	     -4.18050761	      2.92253296	      0.02726001	      0.00172246	     -0.01734981	      0.00691817	     -0.00042619	      0.01082723	     -0.02726001	     -0.00172246	      0.01734981	     -0.00007084	      0.00082628	     -0.00002899	   -866.32540439	   -384.81082366	    300.34652673	     -8.26028124	     21.06112773	      3.32727516	    866.32540439	    384.81082366	   -300.34652673	    127.71567855	    -15.15700465	    348.79670974	   -281.84561208	   -136.74126639	    -82.68397116	      4.43025296	     -9.96183136	      1.37456283	    281.84561208	    136.74126639	     82.68397116	    -36.68701597	      6.98833318	    113.49687945	    177.59382726	      0.03235878	    323.99345992	    994.38780786
